<?xml version="1.0" encoding="UTF-8" standalone="no"?>
<svg
   viewBox="0 0 1200 1200"
   version="1.1"
   id="svg2"
   sodipodi:docname="icon.svg"
   xmlns:inkscape="http://www.inkscape.org/namespaces/inkscape"
   xmlns:sodipodi="http://sodipodi.sourceforge.net/DTD/sodipodi-0.dtd"
   xmlns="http://www.w3.org/2000/svg"
   xmlns:svg="http://www.w3.org/2000/svg">
  <sodipodi:namedview
     id="namedview2"
     pagecolor="#ffffff"
     bordercolor="#000000"
     borderopacity="0.25"
     inkscape:showpageshadow="2"
     inkscape:pageopacity="0.0"
     inkscape:pagecheckerboard="0"
     inkscape:deskcolor="#d1d1d1" />
  <defs
     id="defs1">
    <style
       id="style1">
      .cls-1 {
        stroke-width: 0px;
      }

      .cls-2 {
        fill: #fff;
        stroke: #2d2d2d;
        stroke-miterlimit: 10;
      }
    </style>
  </defs>
  <g
     id="Graphic_Elements"
     data-name="Graphic Elements">
    <rect
       class="cls-1"
       y="2.62"
       width="1201.2"
       height="1196.03"
       rx="230.97"
       ry="230.97"
       id="rect1" />
  </g>
  <g
     id="Layer_3"
     data-name="Layer 3">
    <path
       class="cls-2"
       d="m221.1,838.24v-510.05c9.12-.99,18.37-1.49,27.75-1.49h196.34c4.15,0,8.28.09,12.38.3,135.92,6.46,244.14,118.7,244.14,256.22,0,70.82-28.72,134.97-75.12,181.39-43.7,43.7-103.1,71.7-169.01,74.83-4.09.2-8.23.3-12.38.3h-196.34c-9.38,0-18.63-.5-27.75-1.49"
       id="path1" />
    <path
       class="cls-2"
       d="m598.27,327.13s325.23,255.24,0,512.17h238.16s163.89-29.45,198.47-231.76c0,0,35.85-197.19-188.22-274.01l-248.4-6.4Z"
       id="path2" />
  </g>
</svg>
